<svg width="20" height="20" viewBox="0 0 20 20" fill="none" xmlns="http://www.w3.org/2000/svg">
<g clip-path="url(#clip0_450_1106)">
<path d="M18.061 15.4611C17.5253 14.9835 17.0563 14.436 16.6666 13.8333C16.2411 13.0014 15.9861 12.0929 15.9166 11.1611V8.41667C15.9202 6.95312 15.3893 5.5386 14.4236 4.43888C13.4579 3.33915 12.1239 2.62993 10.6721 2.44445V1.72778C10.6721 1.53108 10.594 1.34243 10.4549 1.20334C10.3158 1.06425 10.1271 0.986115 9.93045 0.986115C9.73375 0.986115 9.5451 1.06425 9.40601 1.20334C9.26692 1.34243 9.18878 1.53108 9.18878 1.72778V2.45556C7.75003 2.65441 6.4321 3.36792 5.47907 4.46395C4.52605 5.55998 4.00252 6.96425 4.00545 8.41667V11.1611C3.93587 12.0929 3.68088 13.0014 3.25545 13.8333C2.8726 14.4346 2.41111 14.9821 1.88322 15.4611C1.82396 15.5132 1.77647 15.5773 1.7439 15.6491C1.71133 15.7209 1.69444 15.7989 1.69434 15.8778V16.6333C1.69434 16.7807 1.75287 16.922 1.85705 17.0262C1.96124 17.1304 2.10255 17.1889 2.24989 17.1889H17.6943C17.8417 17.1889 17.983 17.1304 18.0872 17.0262C18.1914 16.922 18.2499 16.7807 18.2499 16.6333V15.8778C18.2498 15.7989 18.2329 15.7209 18.2003 15.6491C18.1678 15.5773 18.1203 15.5132 18.061 15.4611ZM2.84989 16.0778C3.36679 15.5784 3.82189 15.0189 4.20545 14.4111C4.74134 13.4064 5.05402 12.2978 5.12211 11.1611V8.41667C5.10008 7.76558 5.20929 7.11671 5.44325 6.50871C5.67721 5.9007 6.03112 5.34599 6.48392 4.87761C6.93672 4.40924 7.47914 4.03676 8.07888 3.78238C8.67863 3.52799 9.32343 3.3969 9.97489 3.3969C10.6264 3.3969 11.2712 3.52799 11.8709 3.78238C12.4706 4.03676 13.0131 4.40924 13.4659 4.87761C13.9187 5.34599 14.2726 5.9007 14.5065 6.50871C14.7405 7.11671 14.8497 7.76558 14.8277 8.41667V11.1611C14.8958 12.2978 15.2084 13.4064 15.7443 14.4111C16.1279 15.0189 16.583 15.5784 17.0999 16.0778H2.84989Z" fill="#325044"/>
<path d="M10.0001 19.0444C10.3501 19.0364 10.6859 18.9048 10.9482 18.673C11.2105 18.4412 11.3824 18.1241 11.4335 17.7778H8.51123C8.56372 18.1335 8.74363 18.4581 9.01751 18.6911C9.29139 18.9241 9.64058 19.0496 10.0001 19.0444Z" fill="#325044"/>
</g>
<defs>
<clipPath id="clip0_450_1106">
<rect width="20" height="20" fill="white"/>
</clipPath>
</defs>
</svg>
