<svg width="30" height="30" viewBox="0 0 30 30" fill="none" xmlns="http://www.w3.org/2000/svg">
<path d="M29.5098 26.83C28.5455 25.9703 27.7013 24.9848 26.9998 23.9C26.234 22.4025 25.7751 20.7672 25.6498 19.09V14.15C25.6564 11.5156 24.7008 8.96948 22.9625 6.98997C21.2243 5.01047 18.823 3.73386 16.2098 3.4V2.11C16.2098 1.75594 16.0692 1.41638 15.8188 1.16601C15.5684 0.915653 15.2289 0.775002 14.8748 0.775002C14.5207 0.775002 14.1812 0.915653 13.9308 1.16601C13.6805 1.41638 13.5398 1.75594 13.5398 2.11V3.42C10.9501 3.77793 8.57778 5.06226 6.86233 7.03511C5.14689 9.00796 4.20453 11.5356 4.2098 14.15V19.09C4.08456 20.7672 3.62558 22.4025 2.8598 23.9C2.17069 24.9824 1.34 25.9677 0.389805 26.83C0.283136 26.9237 0.197646 27.0391 0.139022 27.1684C0.0803982 27.2977 0.0499845 27.438 0.0498047 27.58V28.94C0.0498047 29.2052 0.155161 29.4596 0.342698 29.6471C0.530234 29.8346 0.784588 29.94 1.0498 29.94H28.8498C29.115 29.94 29.3694 29.8346 29.5569 29.6471C29.7444 29.4596 29.8498 29.2052 29.8498 28.94V27.58C29.8496 27.438 29.8192 27.2977 29.7606 27.1684C29.702 27.0391 29.6165 26.9237 29.5098 26.83ZM2.1298 27.94C3.06021 27.0412 3.8794 26.034 4.56981 24.94C5.53442 23.1315 6.09724 21.136 6.2198 19.09V14.15C6.18015 12.978 6.37673 11.8101 6.79785 10.7157C7.21897 9.62126 7.85602 8.62279 8.67105 7.7797C9.48609 6.93662 10.4624 6.26617 11.542 5.80828C12.6215 5.35038 13.7822 5.11441 14.9548 5.11441C16.1274 5.11441 17.2881 5.35038 18.3676 5.80828C19.4472 6.26617 20.4235 6.93662 21.2386 7.7797C22.0536 8.62279 22.6906 9.62126 23.1118 10.7157C23.5329 11.8101 23.7295 12.978 23.6898 14.15V19.09C23.8124 21.136 24.3752 23.1315 25.3398 24.94C26.0302 26.034 26.8494 27.0412 27.7798 27.94H2.1298Z" fill="#325044"/>
</svg>
