<svg width="42" height="38" viewBox="0 0 42 38" fill="none" xmlns="http://www.w3.org/2000/svg">
<path d="M1.5 37H40.5M4.5 1V37M25.5 1V37M37.5 10V37M10.5 8.5H12M10.5 14.5H12M10.5 20.5H12M18 8.5H19.5M18 14.5H19.5M18 20.5H19.5M10.5 37V30.25C10.5 29.008 11.508 28 12.75 28H17.25C18.492 28 19.5 29.008 19.5 30.25V37M3 1H27M25.5 10H39M31.5 17.5H31.516V17.516H31.5V17.5ZM31.5 23.5H31.516V23.516H31.5V23.5ZM31.5 29.5H31.516V29.516H31.5V29.5Z" stroke="#325044" stroke-width="2" stroke-linecap="round" stroke-linejoin="round"/>
</svg>
