<svg width="40" height="40" viewBox="0 0 40 40" fill="none" xmlns="http://www.w3.org/2000/svg">
<path d="M1.00395 38.231C1.00538 38.3334 1.02698 38.4346 1.06751 38.5287C1.10804 38.6227 1.16671 38.7079 1.24016 38.7793C1.31361 38.8507 1.40041 38.907 1.49561 38.9449C1.5908 38.9827 1.69251 39.0015 1.79495 39H38.2019C38.3045 39.0016 38.4063 38.9829 38.5016 38.9451C38.5969 38.9073 38.6838 38.8511 38.7574 38.7797C38.8309 38.7083 38.8897 38.6231 38.9303 38.5289C38.9709 38.4347 38.9925 38.3335 38.9939 38.231V37.313C39.0119 37.036 39.0489 35.656 38.1389 34.129C37.5649 33.166 36.7319 32.335 35.6629 31.657C34.3699 30.837 32.7249 30.244 30.7349 29.887C29.7248 29.7448 28.7227 29.5499 27.7329 29.303C25.1009 28.631 24.8709 28.036 24.8689 28.03C24.8537 27.9712 24.8316 27.9145 24.8029 27.861C24.7809 27.751 24.7279 27.333 24.8299 26.214C25.0879 23.371 26.6129 21.691 27.8379 20.341C28.2239 19.916 28.5889 19.513 28.8699 19.119C30.0829 17.419 30.1949 15.484 30.1999 15.364C30.2045 15.1514 30.1752 14.9394 30.1129 14.736C29.9929 14.366 29.7699 14.136 29.6059 13.966C29.5671 13.9271 29.5295 13.8871 29.4929 13.846C29.4809 13.832 29.4489 13.794 29.4779 13.603C29.576 12.9877 29.6438 12.368 29.6809 11.746C29.7369 10.744 29.7799 9.246 29.5209 7.787C29.4829 7.50832 29.4254 7.23265 29.3489 6.962C29.0759 5.958 28.6379 5.1 28.0289 4.392C27.9239 4.277 25.3759 1.592 17.9789 1.042C16.9559 0.965997 15.9449 1.007 14.9489 1.058C14.6544 1.06454 14.3613 1.10073 14.0739 1.166C13.3099 1.363 13.1059 1.847 13.0529 2.118C12.9639 2.568 13.1199 2.916 13.2229 3.148C13.2379 3.181 13.2569 3.222 13.2239 3.33C13.0529 3.596 12.7819 3.836 12.5069 4.063C12.4269 4.13 10.5729 5.73 10.4709 7.819C10.1959 9.408 10.2159 11.883 10.5409 13.594C10.5609 13.689 10.5879 13.829 10.5429 13.924C10.1929 14.237 9.79695 14.592 9.79795 15.402C9.80195 15.484 9.91495 17.418 11.1279 19.119C11.4079 19.513 11.7729 19.915 12.1579 20.34L12.1599 20.341C13.3849 21.691 14.9099 23.371 15.1679 26.213C15.2689 27.333 15.2159 27.75 15.1949 27.861C15.1659 27.9144 15.1434 27.9712 15.1279 28.03C15.1269 28.036 14.8979 28.629 12.2779 29.3C10.7659 29.687 9.27795 29.885 9.23295 29.89C7.29895 30.217 5.66395 30.796 4.37295 31.611C3.30795 32.284 2.47295 33.118 1.89295 34.088C0.964949 35.638 0.989948 37.05 1.00295 37.308V38.231H1.00395Z" stroke="#325044" stroke-width="2" stroke-linejoin="round"/>
</svg>
