<svg width="22" height="22" viewBox="0 0 22 22" fill="none" xmlns="http://www.w3.org/2000/svg">
<path d="M2.75 4.8125V15.8125C2.75 16.1772 2.89487 16.5269 3.15273 16.7848C3.41059 17.0426 3.76033 17.1875 4.125 17.1875H17.875C18.2397 17.1875 18.5894 17.0426 18.8473 16.7848C19.1051 16.5269 19.25 16.1772 19.25 15.8125V4.8125H2.75ZM2.75 3.4375H19.25C19.6147 3.4375 19.9644 3.58237 20.2223 3.84023C20.4801 4.09809 20.625 4.44783 20.625 4.8125V15.8125C20.625 16.5418 20.3353 17.2413 19.8195 17.757C19.3038 18.2728 18.6043 18.5625 17.875 18.5625H4.125C3.39565 18.5625 2.69618 18.2728 2.18046 17.757C1.66473 17.2413 1.375 16.5418 1.375 15.8125V4.8125C1.375 4.44783 1.51987 4.09809 1.77773 3.84023C2.03559 3.58237 2.38533 3.4375 2.75 3.4375Z" fill="#325044"/>
<path d="M19.4219 4.8125L14.1048 10.89C13.7176 11.3326 13.2403 11.6873 12.7048 11.9303C12.1693 12.1734 11.588 12.2991 11 12.2991C10.412 12.2991 9.8307 12.1734 9.29523 11.9303C8.75975 11.6873 8.28242 11.3326 7.89525 10.89L2.57812 4.8125H19.4219ZM4.4055 4.8125L8.92925 9.98387C9.18737 10.279 9.50561 10.5156 9.86264 10.6776C10.2197 10.8397 10.6072 10.9235 10.9993 10.9235C11.3914 10.9235 11.779 10.8397 12.136 10.6776C12.493 10.5156 12.8113 10.279 13.0694 9.98387L17.5945 4.8125H4.4055V4.8125Z" fill="#325044"/>
</svg>
