<svg width="18" height="9" viewBox="0 0 18 9" fill="none" xmlns="http://www.w3.org/2000/svg">
<path d="M17.4219 0.8125L12.1048 6.89C11.7176 7.3326 11.2403 7.68731 10.7048 7.93034C10.1693 8.17336 9.58805 8.29909 9 8.29909C8.41195 8.29909 7.8307 8.17336 7.29523 7.93034C6.75975 7.68731 6.28242 7.3326 5.89525 6.89L0.578125 0.8125H17.4219ZM2.4055 0.8125L6.92925 5.98387C7.18737 6.27902 7.50561 6.51556 7.86264 6.67762C8.21967 6.83969 8.60722 6.92353 8.99931 6.92353C9.3914 6.92353 9.77896 6.83969 10.136 6.67762C10.493 6.51556 10.8113 6.27902 11.0694 5.98387L15.5945 0.8125H2.4055V0.8125Z" fill="#325044"/>
</svg>
