<svg width="18" height="18" viewBox="0 0 18 18" fill="none" xmlns="http://www.w3.org/2000/svg">
<path d="M17.061 15.4611C16.5253 14.9835 16.0563 14.436 15.6666 13.8333C15.2411 13.0014 14.9861 12.0929 14.9166 11.1611V8.41667C14.9202 6.95312 14.3893 5.5386 13.4236 4.43888C12.4579 3.33915 11.1239 2.62993 9.67211 2.44445V1.72778C9.67211 1.53108 9.59397 1.34243 9.45488 1.20334C9.31579 1.06425 9.12715 0.986115 8.93045 0.986115C8.73374 0.986115 8.5451 1.06425 8.40601 1.20334C8.26692 1.34243 8.18878 1.53108 8.18878 1.72778V2.45556C6.75003 2.65441 5.4321 3.36792 4.47907 4.46395C3.52605 5.55998 3.00252 6.96425 3.00545 8.41667V11.1611C2.93587 12.0929 2.68088 13.0014 2.25545 13.8333C1.8726 14.4346 1.41111 14.9821 0.883225 15.4611C0.823965 15.5132 0.77647 15.5773 0.743901 15.6491C0.711332 15.7209 0.694436 15.7989 0.694336 15.8778V16.6333C0.694336 16.7807 0.752867 16.922 0.857054 17.0262C0.961241 17.1304 1.10255 17.1889 1.24989 17.1889H16.6943C16.8417 17.1889 16.983 17.1304 17.0872 17.0262C17.1914 16.922 17.2499 16.7807 17.2499 16.6333V15.8778C17.2498 15.7989 17.2329 15.7209 17.2003 15.6491C17.1678 15.5773 17.1203 15.5132 17.061 15.4611ZM1.84989 16.0778C2.36679 15.5784 2.82189 15.0189 3.20545 14.4111C3.74134 13.4064 4.05402 12.2978 4.12211 11.1611V8.41667C4.10008 7.76558 4.20929 7.11671 4.44325 6.50871C4.67721 5.9007 5.03112 5.34599 5.48392 4.87761C5.93672 4.40924 6.47914 4.03676 7.07888 3.78238C7.67863 3.52799 8.32343 3.3969 8.97489 3.3969C9.62636 3.3969 10.2712 3.52799 10.8709 3.78238C11.4706 4.03676 12.0131 4.40924 12.4659 4.87761C12.9187 5.34599 13.2726 5.9007 13.5065 6.50871C13.7405 7.11671 13.8497 7.76558 13.8277 8.41667V11.1611C13.8958 12.2978 14.2084 13.4064 14.7443 14.4111C15.1279 15.0189 15.583 15.5784 16.0999 16.0778H1.84989Z" fill="#325044"/>
</svg>
