<svg width="22" height="22" viewBox="0 0 22 22" fill="none" xmlns="http://www.w3.org/2000/svg">
<g clip-path="url(#clip0_450_1110)">
<path d="M10.9999 10.3889C11.846 10.3889 12.6731 10.138 13.3766 9.66797C14.08 9.19792 14.6283 8.52982 14.9521 7.74816C15.2759 6.9665 15.3606 6.10638 15.1955 5.27657C15.0305 4.44676 14.623 3.68454 14.0248 3.08628C13.4265 2.48802 12.6643 2.0806 11.8345 1.91554C11.0047 1.75048 10.1446 1.8352 9.36291 2.15897C8.58125 2.48275 7.91315 3.03104 7.4431 3.73452C6.97306 4.43799 6.72217 5.26506 6.72217 6.11112C6.72217 7.24566 7.17286 8.33373 7.9751 9.13597C8.77734 9.93821 9.86541 10.3889 10.9999 10.3889ZM10.9999 3.05557C11.6043 3.05557 12.195 3.23477 12.6975 3.57052C13.2 3.90627 13.5916 4.38348 13.8229 4.94181C14.0542 5.50014 14.1147 6.11451 13.9968 6.70723C13.8789 7.29995 13.5879 7.8444 13.1605 8.27173C12.7332 8.69905 12.1888 8.99007 11.5961 9.10797C11.0033 9.22587 10.389 9.16536 9.83063 8.93409C9.27231 8.70282 8.79509 8.31118 8.45934 7.8087C8.1236 7.30622 7.94439 6.71545 7.94439 6.11112C7.94439 5.30074 8.26631 4.52355 8.83934 3.95052C9.41237 3.37749 10.1896 3.05557 10.9999 3.05557Z" fill="#325044"/>
<path d="M18.6207 14.8928C17.6406 13.8569 16.4596 13.0319 15.1499 12.468C13.8401 11.9041 12.4291 11.6133 11.0032 11.6133C9.57719 11.6133 8.1662 11.9041 6.85645 12.468C5.54669 13.0319 4.3657 13.8569 3.38567 14.8928C3.17319 15.1197 3.05518 15.4191 3.05567 15.73V18.9444C3.05567 19.2686 3.18443 19.5795 3.41365 19.8087C3.64286 20.0379 3.95373 20.1667 4.27789 20.1667H17.7223C18.0465 20.1667 18.3574 20.0379 18.5866 19.8087C18.8158 19.5795 18.9446 19.2686 18.9446 18.9444V15.73C18.9467 15.4199 18.8309 15.1207 18.6207 14.8928V14.8928ZM17.7223 18.9444H4.27789V15.7239C5.14397 14.8119 6.18656 14.0857 7.34222 13.5894C8.49787 13.0932 9.74241 12.8373 11.0001 12.8373C12.2578 12.8373 13.5023 13.0932 14.658 13.5894C15.8137 14.0857 16.8562 14.8119 17.7223 15.7239V18.9444Z" fill="#325044"/>
</g>
<defs>
<clipPath id="clip0_450_1110">
<rect width="22" height="22" fill="white"/>
</clipPath>
</defs>
</svg>
