<svg width="16" height="10" viewBox="0 0 16 10" fill="none" xmlns="http://www.w3.org/2000/svg">
<path d="M15.6207 3.89277C14.6406 2.85694 13.4596 2.03188 12.1499 1.46801C10.8401 0.904136 9.42914 0.613312 8.00317 0.613312C6.57719 0.613312 5.1662 0.904136 3.85645 1.46801C2.54669 2.03188 1.3657 2.85694 0.385666 3.89277C0.17319 4.11972 0.0551832 4.4191 0.0556655 4.72999V7.94443C0.0556655 8.26859 0.184435 8.57947 0.413646 8.80868C0.642857 9.03789 0.953734 9.16666 1.27789 9.16666H14.7223C15.0465 9.16666 15.3574 9.03789 15.5866 8.80868C15.8158 8.57947 15.9446 8.26859 15.9446 7.94443V4.72999C15.9467 4.41994 15.8309 4.12066 15.6207 3.89277ZM14.7223 7.94443H1.27789V4.72388C2.14397 3.8119 3.18656 3.0857 4.34222 2.58945C5.49787 2.09319 6.74241 1.83728 8.00011 1.83728C9.25781 1.83728 10.5023 2.09319 11.658 2.58945C12.8137 3.0857 13.8562 3.8119 14.7223 4.72388V7.94443Z" fill="#325044"/>
</svg>
